<svg width="105" height="105" viewBox="0 0 105 105" fill="none" xmlns="http://www.w3.org/2000/svg">
<path d="M33.6 78.75L52.5 59.85L71.4 78.75L78.75 71.4L59.85 52.5L78.75 33.6L71.4 26.25L52.5 45.15L33.6 26.25L26.25 33.6L45.15 52.5L26.25 71.4L33.6 78.75ZM52.5 105C45.2375 105 38.4125 103.621 32.025 100.863C25.6375 98.105 20.0812 94.3652 15.3562 89.6437C10.6313 84.9222 6.8915 79.366 4.137 72.975C1.38251 66.584 0.00350664 59.759 6.64556e-06 52.5C-0.00349335 45.241 1.37551 38.416 4.137 32.025C6.8985 25.634 10.6383 20.0777 15.3562 15.3562C20.0742 10.6347 25.6305 6.895 32.025 4.137C38.4195 1.379 45.2445 0 52.5 0C59.7555 0 66.5805 1.379 72.975 4.137C79.3695 6.895 84.9257 10.6347 89.6437 15.3562C94.3617 20.0777 98.1032 25.634 100.868 32.025C103.633 38.416 105.01 45.241 105 52.5C104.989 59.759 103.61 66.584 100.863 72.975C98.1154 79.366 94.3757 84.9222 89.6437 89.6437C84.9117 94.3652 79.3555 98.1067 72.975 100.868C66.5945 103.63 59.7695 105.007 52.5 105Z" fill="#CA2325" style="fill:#CA2325;fill:color(display-p3 0.7906 0.1356 0.1466);fill-opacity:1;"/>
</svg>
