<svg width="116" height="123" viewBox="0 0 116 123" fill="none" xmlns="http://www.w3.org/2000/svg">
<path d="M30.75 53.8125H53.8125V123H30.75V53.8125ZM38.4375 115.312H46.125V61.5H38.4375V115.312ZM61.5 69.1875H84.5625V123H61.5V69.1875ZM69.1875 115.312H76.875V76.875H69.1875V115.312ZM0 84.5625H23.0625V123H0V84.5625ZM7.6875 115.312H15.375V92.25H7.6875V115.312ZM92.25 38.4375H115.312V123H92.25V38.4375ZM99.9375 115.312H107.625V46.125H99.9375V115.312ZM83.4214 37.2964C84.1821 38.938 84.5625 40.5996 84.5625 42.2812C84.5625 43.8828 84.2622 45.3843 83.6616 46.7856C83.061 48.187 82.2402 49.4082 81.1992 50.4492C80.1582 51.4902 78.937 52.311 77.5356 52.9116C76.1343 53.5122 74.6328 53.8125 73.0312 53.8125C71.4297 53.8125 69.9282 53.5122 68.5269 52.9116C67.1255 52.311 65.9043 51.4902 64.8633 50.4492C63.8223 49.4082 63.0015 48.187 62.4009 46.7856C61.8003 45.3843 61.5 43.8828 61.5 42.2812V41.5605C61.5 41.3203 61.52 41.0801 61.5601 40.8398L50.269 35.1943C49.228 36.2354 48.0068 37.0361 46.6055 37.5967C45.2041 38.1572 43.7627 38.4375 42.2812 38.4375C40.5996 38.4375 38.938 38.0571 37.2964 37.2964L21.9214 52.6714C22.6821 54.313 23.0625 55.9746 23.0625 57.6562C23.0625 59.2578 22.7622 60.7593 22.1616 62.1606C21.561 63.562 20.7402 64.7832 19.6992 65.8242C18.6582 66.8652 17.437 67.686 16.0356 68.2866C14.6343 68.8872 13.1328 69.1875 11.5312 69.1875C9.92969 69.1875 8.42822 68.8872 7.02686 68.2866C5.62549 67.686 4.4043 66.8652 3.36328 65.8242C2.32227 64.7832 1.50146 63.562 0.900879 62.1606C0.300293 60.7593 0 59.2578 0 57.6562C0 56.0547 0.300293 54.5532 0.900879 53.1519C1.50146 51.7505 2.32227 50.5293 3.36328 49.4883C4.4043 48.4473 5.62549 47.6265 7.02686 47.0259C8.42822 46.4253 9.92969 46.125 11.5312 46.125C13.2129 46.125 14.8745 46.5054 16.5161 47.2661L31.8911 31.8911C31.1304 30.2495 30.75 28.5879 30.75 26.9062C30.75 25.3047 31.0503 23.8032 31.6509 22.4019C32.2515 21.0005 33.0723 19.7793 34.1133 18.7383C35.1543 17.6973 36.3755 16.8765 37.7769 16.2759C39.1782 15.6753 40.6797 15.375 42.2812 15.375C43.8828 15.375 45.3843 15.6753 46.7856 16.2759C48.187 16.8765 49.4082 17.6973 50.4492 18.7383C51.4902 19.7793 52.311 21.0005 52.9116 22.4019C53.5122 23.8032 53.8125 25.3047 53.8125 26.9062V27.627C53.8125 27.8672 53.7925 28.1074 53.7524 28.3477L65.0435 33.9932C66.0845 32.9521 67.3057 32.1514 68.707 31.5908C70.1084 31.0303 71.5498 30.75 73.0312 30.75C74.7129 30.75 76.3745 31.1304 78.0161 31.8911L93.3911 16.5161C92.6304 14.8745 92.25 13.2129 92.25 11.5312C92.25 9.92969 92.5503 8.42822 93.1509 7.02686C93.7515 5.62549 94.5723 4.4043 95.6133 3.36328C96.6543 2.32227 97.8755 1.50146 99.2769 0.900879C100.678 0.300293 102.18 0 103.781 0C105.383 0 106.884 0.300293 108.286 0.900879C109.687 1.50146 110.908 2.32227 111.949 3.36328C112.99 4.4043 113.811 5.62549 114.412 7.02686C115.012 8.42822 115.312 9.92969 115.312 11.5312C115.312 13.1328 115.012 14.6343 114.412 16.0356C113.811 17.437 112.99 18.6582 111.949 19.6992C110.908 20.7402 109.687 21.561 108.286 22.1616C106.884 22.7622 105.383 23.0625 103.781 23.0625C102.1 23.0625 100.438 22.6821 98.7964 21.9214L83.4214 37.2964ZM11.5312 61.5C12.5723 61.5 13.4731 61.1196 14.2339 60.3589C14.9946 59.5981 15.375 58.6973 15.375 57.6562C15.375 56.6152 14.9946 55.7144 14.2339 54.9536C13.4731 54.1929 12.5723 53.8125 11.5312 53.8125C10.4902 53.8125 9.58936 54.1929 8.82861 54.9536C8.06787 55.7144 7.6875 56.6152 7.6875 57.6562C7.6875 58.6973 8.06787 59.5981 8.82861 60.3589C9.58936 61.1196 10.4902 61.5 11.5312 61.5ZM103.781 7.6875C102.74 7.6875 101.839 8.06787 101.079 8.82861C100.318 9.58936 99.9375 10.4902 99.9375 11.5312C99.9375 12.5723 100.318 13.4731 101.079 14.2339C101.839 14.9946 102.74 15.375 103.781 15.375C104.822 15.375 105.723 14.9946 106.484 14.2339C107.245 13.4731 107.625 12.5723 107.625 11.5312C107.625 10.4902 107.245 9.58936 106.484 8.82861C105.723 8.06787 104.822 7.6875 103.781 7.6875ZM42.2812 30.75C43.3223 30.75 44.2231 30.3696 44.9839 29.6089C45.7446 28.8481 46.125 27.9473 46.125 26.9062C46.125 25.8652 45.7446 24.9644 44.9839 24.2036C44.2231 23.4429 43.3223 23.0625 42.2812 23.0625C41.2402 23.0625 40.3394 23.4429 39.5786 24.2036C38.8179 24.9644 38.4375 25.8652 38.4375 26.9062C38.4375 27.9473 38.8179 28.8481 39.5786 29.6089C40.3394 30.3696 41.2402 30.75 42.2812 30.75ZM73.0312 46.125C74.0723 46.125 74.9731 45.7446 75.7339 44.9839C76.4946 44.2231 76.875 43.3223 76.875 42.2812C76.875 41.2402 76.4946 40.3394 75.7339 39.5786C74.9731 38.8179 74.0723 38.4375 73.0312 38.4375C71.9902 38.4375 71.0894 38.8179 70.3286 39.5786C69.5679 40.3394 69.1875 41.2402 69.1875 42.2812C69.1875 43.3223 69.5679 44.2231 70.3286 44.9839C71.0894 45.7446 71.9902 46.125 73.0312 46.125Z" fill="#6F8650" style="fill:#6F8650;fill:color(display-p3 0.4353 0.5255 0.3137);fill-opacity:1;"/>
</svg>
