<svg width="129" height="87" viewBox="0 0 129 87" fill="none" xmlns="http://www.w3.org/2000/svg">
<path d="M64.5 26.125C59.8919 26.125 55.4725 27.9556 52.214 31.214C48.9556 34.4725 47.125 38.8919 47.125 43.5C47.125 48.1081 48.9556 52.5275 52.214 55.786C55.4725 59.0444 59.8919 60.875 64.5 60.875C69.1081 60.875 73.5275 59.0444 76.786 55.786C80.0444 52.5275 81.875 48.1081 81.875 43.5C81.875 38.8919 80.0444 34.4725 76.786 31.214C73.5275 27.9556 69.1081 26.125 64.5 26.125ZM64.5 72.4583C56.8198 72.4583 49.4541 69.4074 44.0234 63.9766C38.5926 58.5459 35.5417 51.1802 35.5417 43.5C35.5417 35.8198 38.5926 28.4541 44.0234 23.0234C49.4541 17.5926 56.8198 14.5417 64.5 14.5417C72.1802 14.5417 79.5459 17.5926 84.9766 23.0234C90.4074 28.4541 93.4583 35.8198 93.4583 43.5C93.4583 51.1802 90.4074 58.5459 84.9766 63.9766C79.5459 69.4074 72.1802 72.4583 64.5 72.4583ZM64.5 0.0625C35.5417 0.0625 10.8112 18.0746 0.791656 43.5C10.8112 68.9254 35.5417 86.9375 64.5 86.9375C93.4583 86.9375 118.189 68.9254 128.208 43.5C118.189 18.0746 93.4583 0.0625 64.5 0.0625Z" fill="#6F8650" style="fill:#6F8650;fill:color(display-p3 0.4353 0.5255 0.3137);fill-opacity:1;"/>
</svg>
