<svg width="128" height="110" viewBox="0 0 128 110" fill="none" xmlns="http://www.w3.org/2000/svg">
<path d="M63.0109 34.7368L81.4545 53.0316V52.1053C81.4545 47.4989 79.6156 43.0811 76.3422 39.8239C73.0689 36.5667 68.6292 34.7368 64 34.7368H63.0109ZM37.9927 39.3684L47.0109 48.3421C46.72 49.5579 46.5455 50.7737 46.5455 52.1053C46.5455 56.7117 48.3844 61.1294 51.6578 64.3866C54.9311 67.6438 59.3708 69.4737 64 69.4737C65.28 69.4737 66.56 69.3 67.7818 69.0105L76.8 77.9842C72.9018 79.8947 68.5964 81.0526 64 81.0526C56.2846 81.0526 48.8852 78.0028 43.4296 72.5741C37.974 67.1455 34.9091 59.7826 34.9091 52.1053C34.9091 47.5316 36.0727 43.2474 37.9927 39.3684ZM5.81818 7.35263L19.0836 20.5526L21.7018 23.1579C12.1018 30.6842 4.53818 40.5263 0 52.1053C10.0655 77.521 34.9091 95.5263 64 95.5263C73.0182 95.5263 81.6291 93.7895 89.4836 90.6632L91.9855 93.0947L108.975 110L116.364 102.647L13.2073 0M64 23.1579C71.7154 23.1579 79.1148 26.2077 84.5704 31.6364C90.026 37.0651 93.0909 44.4279 93.0909 52.1053C93.0909 55.8105 92.3345 59.4 90.9964 62.6421L108.044 79.6053C116.771 72.3684 123.753 62.8737 128 52.1053C117.935 26.6895 93.0909 8.68421 64 8.68421C55.8545 8.68421 48.0582 10.1316 40.7273 12.7368L53.3527 25.1842C56.6691 23.9105 60.2182 23.1579 64 23.1579Z" fill="#9C9C9C" style="fill:#9C9C9C;fill:color(display-p3 0.6100 0.6100 0.6100);fill-opacity:1;"/>
</svg>
