<svg width="105" height="105" viewBox="0 0 105 105" fill="none" xmlns="http://www.w3.org/2000/svg">
<path d="M0 13.125C0 9.64403 1.38281 6.30564 3.84422 3.84422C6.30564 1.38281 9.64403 0 13.125 0H91.875C95.356 0 98.6944 1.38281 101.156 3.84422C103.617 6.30564 105 9.64403 105 13.125V91.875C105 95.356 103.617 98.6944 101.156 101.156C98.6944 103.617 95.356 105 91.875 105H13.125C9.64403 105 6.30564 103.617 3.84422 101.156C1.38281 98.6944 0 95.356 0 91.875V13.125ZM58.6031 43.2338L43.575 45.1172L43.0369 47.6109L45.99 48.1556C47.9194 48.615 48.3 49.3106 47.88 51.2334L43.0369 73.9922C41.7637 79.8788 43.7259 82.6481 48.3394 82.6481C51.9159 82.6481 56.07 80.9944 57.9534 78.7238L58.5309 75.9938C57.2184 77.1488 55.3022 77.6081 54.0291 77.6081C52.2244 77.6081 51.5681 76.3416 52.0341 74.1103L58.6031 43.2338ZM52.5 36.0938C54.2405 36.0938 55.9097 35.4023 57.1404 34.1716C58.3711 32.9409 59.0625 31.2717 59.0625 29.5312C59.0625 27.7908 58.3711 26.1216 57.1404 24.8909C55.9097 23.6602 54.2405 22.9688 52.5 22.9688C50.7595 22.9688 49.0903 23.6602 47.8596 24.8909C46.6289 26.1216 45.9375 27.7908 45.9375 29.5312C45.9375 31.2717 46.6289 32.9409 47.8596 34.1716C49.0903 35.4023 50.7595 36.0938 52.5 36.0938Z" fill="#2A65CA" style="fill:#2A65CA;fill:color(display-p3 0.1664 0.3955 0.7912);fill-opacity:1;"/>
</svg>
