<svg width="132" height="123" viewBox="0 0 132 123" fill="none" xmlns="http://www.w3.org/2000/svg">
<path d="M40.7687 61.5C33.3438 61.7288 27.2708 64.6574 22.55 70.2857H13.3375C9.57917 70.2857 6.41667 69.3591 3.85 67.5059C1.28333 65.6526 0 62.9414 0 59.3722C0 43.2193 2.84167 35.1429 8.525 35.1429C8.8 35.1429 9.79688 35.6233 11.5156 36.5843C13.2344 37.5452 15.4688 38.5176 18.2188 39.5014C20.9688 40.4852 23.6958 40.9771 26.4 40.9771C29.4708 40.9771 32.5187 40.4509 35.5438 39.3984C35.3146 41.0915 35.2 42.6016 35.2 43.9286C35.2 50.2891 37.0563 56.1462 40.7687 61.5ZM114.4 105.223C114.4 110.714 112.727 115.049 109.381 118.23C106.035 121.41 101.59 123 96.0438 123H35.9562C30.4104 123 25.9646 121.41 22.6187 118.23C19.2729 115.049 17.6 110.714 17.6 105.223C17.6 102.797 17.6802 100.429 17.8406 98.1186C18.001 95.8078 18.3219 93.3139 18.8031 90.637C19.2844 87.9601 19.8917 85.4777 20.625 83.1897C21.3583 80.9018 22.3438 78.671 23.5813 76.4975C24.8188 74.3239 26.2396 72.4707 27.8438 70.9378C29.4479 69.4049 31.4073 68.1808 33.7219 67.2656C36.0365 66.3504 38.5917 65.8929 41.3875 65.8929C41.8458 65.8929 42.8312 66.3848 44.3438 67.3686C45.8563 68.3524 47.5292 69.4506 49.3625 70.6632C51.1958 71.8758 53.6479 72.9741 56.7188 73.9579C59.7896 74.9417 62.8833 75.4336 66 75.4336C69.1167 75.4336 72.2104 74.9417 75.2812 73.9579C78.3521 72.9741 80.8042 71.8758 82.6375 70.6632C84.4708 69.4506 86.1438 68.3524 87.6562 67.3686C89.1688 66.3848 90.1542 65.8929 90.6125 65.8929C93.4083 65.8929 95.9635 66.3504 98.2781 67.2656C100.593 68.1808 102.552 69.4049 104.156 70.9378C105.76 72.4707 107.181 74.3239 108.419 76.4975C109.656 78.671 110.642 80.9018 111.375 83.1897C112.108 85.4777 112.716 87.9601 113.197 90.637C113.678 93.3139 113.999 95.8078 114.159 98.1186C114.32 100.429 114.4 102.797 114.4 105.223ZM44 17.5714C44 22.4219 42.2812 26.5631 38.8438 29.995C35.4062 33.4269 31.2583 35.1429 26.4 35.1429C21.5417 35.1429 17.3938 33.4269 13.9563 29.995C10.5188 26.5631 8.8 22.4219 8.8 17.5714C8.8 12.721 10.5188 8.5798 13.9563 5.14788C17.3938 1.71596 21.5417 0 26.4 0C31.2583 0 35.4062 1.71596 38.8438 5.14788C42.2812 8.5798 44 12.721 44 17.5714ZM92.4 43.9286C92.4 51.2042 89.8219 57.416 84.6656 62.5639C79.5094 67.7118 73.2875 70.2857 66 70.2857C58.7125 70.2857 52.4906 67.7118 47.3344 62.5639C42.1781 57.416 39.6 51.2042 39.6 43.9286C39.6 36.6529 42.1781 30.4411 47.3344 25.2932C52.4906 20.1454 58.7125 17.5714 66 17.5714C73.2875 17.5714 79.5094 20.1454 84.6656 25.2932C89.8219 30.4411 92.4 36.6529 92.4 43.9286ZM132 59.3722C132 62.9414 130.717 65.6526 128.15 67.5059C125.583 69.3591 122.421 70.2857 118.663 70.2857H109.45C104.729 64.6574 98.6562 61.7288 91.2313 61.5C94.9437 56.1462 96.8 50.2891 96.8 43.9286C96.8 42.6016 96.6854 41.0915 96.4563 39.3984C99.4813 40.4509 102.529 40.9771 105.6 40.9771C108.304 40.9771 111.031 40.4852 113.781 39.5014C116.531 38.5176 118.766 37.5452 120.484 36.5843C122.203 35.6233 123.2 35.1429 123.475 35.1429C129.158 35.1429 132 43.2193 132 59.3722ZM123.2 17.5714C123.2 22.4219 121.481 26.5631 118.044 29.995C114.606 33.4269 110.458 35.1429 105.6 35.1429C100.742 35.1429 96.5938 33.4269 93.1562 29.995C89.7188 26.5631 88 22.4219 88 17.5714C88 12.721 89.7188 8.5798 93.1562 5.14788C96.5938 1.71596 100.742 0 105.6 0C110.458 0 114.606 1.71596 118.044 5.14788C121.481 8.5798 123.2 12.721 123.2 17.5714Z" fill="#6F8650" style="fill:#6F8650;fill:color(display-p3 0.4353 0.5255 0.3137);fill-opacity:1;"/>
</svg>
