<svg width="101" height="123" viewBox="0 0 101 123" fill="none" xmlns="http://www.w3.org/2000/svg">
<path d="M0.116187 22.14C-0.185942 19.3495 0.102772 16.5266 0.963528 13.8551C1.82428 11.1836 3.23778 8.72346 5.11199 6.63484C6.98619 4.54621 9.27907 2.87595 11.8413 1.73279C14.4036 0.589633 17.1778 -0.000777489 19.9833 7.68401e-07H81.0229C83.8279 8.61536e-05 86.6014 0.591132 89.1629 1.73467C91.7244 2.87821 94.0165 4.5486 95.8901 6.63713C97.7636 8.72565 99.1766 11.1855 100.037 13.8565C100.897 16.5276 101.186 19.35 100.884 22.14L91.3191 110.645C90.9537 114.038 89.3475 117.177 86.8093 119.458C84.271 121.738 80.9799 123 77.5683 123H23.4317C20.0211 123 16.7307 121.739 14.1926 119.46C11.6545 117.181 10.0477 114.043 9.68091 110.651L0.116187 22.14ZM9.33667 18.4316H91.6695C91.2959 15.8735 90.0145 13.5355 88.0596 11.8449C86.1047 10.1544 83.6068 9.22443 81.0229 9.225H19.9833C14.5124 9.225 10.0805 13.284 9.33667 18.4316ZM49.2245 51.7154C49.3651 51.5061 49.5549 51.3346 49.7774 51.216C49.9998 51.0974 50.248 51.0354 50.5 51.0354C50.752 51.0354 51.0002 51.0974 51.2226 51.216C51.4451 51.3346 51.6349 51.5061 51.7755 51.7154L55.894 57.8654C56.2219 58.388 56.6513 58.8395 57.1568 59.1931C57.6623 59.5467 58.2335 59.7952 58.8368 59.924C59.44 60.0527 60.0629 60.0591 60.6686 59.9426C61.2743 59.8262 61.8505 59.5893 62.363 59.2461C62.8756 58.9028 63.3141 58.4602 63.6526 57.9443C63.9911 57.4285 64.2227 56.8499 64.3336 56.2429C64.4446 55.6359 64.4327 55.0128 64.2986 54.4104C64.1646 53.8081 63.9111 53.2388 63.5531 52.7363L59.4408 46.5863C58.4579 45.1148 57.1276 43.9086 55.5675 43.0744C54.0074 42.2402 52.2658 41.8037 50.4969 41.8037C48.728 41.8037 46.9864 42.2402 45.4264 43.0744C43.8663 43.9086 42.5359 45.1148 41.5531 46.5863L37.4469 52.7363C36.767 53.7532 36.5189 54.9987 36.7569 56.1988C36.995 57.3989 37.6997 58.4552 38.7162 59.1353C39.7327 59.8155 40.9776 60.0638 42.1771 59.8256C43.3766 59.5875 44.4323 58.8823 45.1122 57.8654L49.2245 51.7154ZM37.5452 71.5122C37.864 70.9927 38.0766 70.4152 38.1709 69.8129C38.2652 69.2107 38.2392 68.5958 38.0945 68.0037C37.9498 67.4115 37.6892 66.854 37.3278 66.3633C36.9664 65.8725 36.5114 65.4583 35.989 65.1446C35.4667 64.8308 34.8873 64.6238 34.2845 64.5354C33.6817 64.4471 33.0673 64.4791 32.4769 64.6297C31.8866 64.7804 31.3319 65.0466 30.845 65.413C30.3581 65.7794 29.9486 66.2387 29.6402 66.7644L27.4027 70.4975C22.4851 78.6954 28.3862 89.132 37.9448 89.132H42.8132C44.0359 89.132 45.2085 88.646 46.0731 87.781C46.9377 86.916 47.4234 85.7428 47.4234 84.5195C47.4234 83.2961 46.9377 82.1229 46.0731 81.2579C45.2085 80.3929 44.0359 79.907 42.8132 79.907H37.9448C37.4001 79.9077 36.8649 79.7636 36.3942 79.4894C35.9234 79.2153 35.5339 78.8208 35.2656 78.3465C34.9973 77.8722 34.8598 77.3351 34.8672 76.7902C34.8746 76.2453 35.0266 75.7121 35.3077 75.2452L37.5452 71.5122ZM65.0469 65.1777C64.5265 65.489 64.0726 65.8999 63.7112 66.3869C63.3498 66.8739 63.0879 67.4274 62.9406 68.0158C62.7933 68.6042 62.7634 69.2159 62.8527 69.8159C62.942 70.4158 63.1487 70.9923 63.4609 71.5122L65.6984 75.2452C65.978 75.7119 66.1287 76.2445 66.1353 76.7885C66.1419 77.3325 66.0041 77.8686 65.736 78.3419C65.4679 78.8152 65.079 79.2089 64.6092 79.4828C64.1393 79.7567 63.6052 79.9009 63.0614 79.9008H58.1807C56.958 79.9008 55.7853 80.3868 54.9207 81.2518C54.0561 82.1168 53.5704 83.29 53.5704 84.5133C53.5704 85.7366 54.0561 86.9098 54.9207 87.7748C55.7853 88.6398 56.958 89.1258 58.1807 89.1258H63.0614C72.6138 89.1258 78.5211 78.7015 73.6096 70.5036L71.3721 66.7706C71.061 66.2508 70.6506 65.7974 70.1643 65.4363C69.678 65.0752 69.1254 64.8136 68.538 64.6662C67.9506 64.5189 67.34 64.4888 66.741 64.5776C66.142 64.6664 65.5663 64.8724 65.0469 65.1839" fill="#6F8650" style="fill:#6F8650;fill:color(display-p3 0.4353 0.5255 0.3137);fill-opacity:1;"/>
</svg>
